# xmcd CD database file
#
# Track frame offsets:
#	150
#	24170
#	45926
#	61648
#	82565
#	96203
#	116613
#	137465
#	157519
#	175464
#
# Disc length: 2590 seconds
#
# Revision: 0
# Processed by: cddbd v1.5.2PL0 Copyright (c) Steve Scherf et al.
# Submitted via: CDex 1.70beta2
#
DISCID=5d0a1c0a
DTITLE=JJ Schultz - Something To Me
DYEAR=2005
DGENRE=Country
TTITLE0=Jackie you, Jackie me
TTITLE1=Ol' 55
TTITLE2=Drinkin' you off my mind
TTITLE3=Ol' Billy the cab driver
TTITLE4=Speed Train
TTITLE5=Someone who's not me
TTITLE6=The Lonesome Truckdriver
TTITLE7=Ol' Thomas Edwards
TTITLE8=He Drives
TTITLE9=Something to me
EXTD=YEAR: 2005
EXTT0=
EXTT1=
EXTT2=
EXTT3=
EXTT4=
EXTT5=
EXTT6=
EXTT7=
EXTT8=
EXTT9=
PLAYORDER=
